<?xml version="1.0" standalone="no"?><!DOCTYPE svg PUBLIC "-//W3C//DTD SVG 1.1//EN" "http://www.w3.org/Graphics/SVG/1.1/DTD/svg11.dtd"><svg class="icon" width="200px" height="172.10px" viewBox="0 0 1190 1024" version="1.1" xmlns="http://www.w3.org/2000/svg"><path d="M0.001 827.244a595.14 196.396 0 1 0 1190.28 0 595.14 196.396 0 1 0-1190.28 0z" fill="#F5F6FA" /><path d="M330.125 249.96h530.032a23.806 23.806 0 0 1 19.9 10.758l151.594 231.367a23.806 23.806 0 0 1 3.893 13.045v328.065a23.806 23.806 0 0 1-23.806 23.806H178.543a23.806 23.806 0 0 1-23.805-23.806V505.13a23.806 23.806 0 0 1 3.891-13.045l151.595-231.367a23.806 23.806 0 0 1 19.9-10.759z" fill="#F5F6FA" /><path d="M860.157 244.007H330.125a29.757 29.757 0 0 0-24.877 13.45L153.642 488.824a29.757 29.757 0 0 0-4.868 16.306v328.065a29.757 29.757 0 0 0 29.757 29.758h833.195a29.757 29.757 0 0 0 29.758-29.758V505.13a29.757 29.757 0 0 0-4.869-16.306l-151.57-231.367a29.757 29.757 0 0 0-24.888-13.45zM330.125 255.91h530.032a17.854 17.854 0 0 1 14.925 8.07l151.594 231.367a17.847 17.847 0 0 1 2.916 9.783v328.065a17.854 17.854 0 0 1-17.854 17.854H178.543a17.854 17.854 0 0 1-17.854-17.854V505.13a17.854 17.854 0 0 1 2.915-9.783L315.2 263.98a17.854 17.854 0 0 1 14.925-8.07z" fill="#CECFD9" /><path d="M320.46 11.903h549.361c12.64 0 22.89 10.296 22.89 22.984v620.588a22.937 22.937 0 0 1-22.89 22.984h-549.36a22.937 22.937 0 0 1-22.89-22.984V34.888c0-12.688 10.248-22.984 22.89-22.984z" fill="#FFFFFF" fill-opacity=".726" /><path d="M895.424 21.567l-10.57 5.476a16.926 16.926 0 0 0-15.033-9.19V5.952c10.88 0 20.687 6.107 25.603 15.616z m3.238 44.875h-11.903V42.635h11.903v23.806z m0 42.85h-11.903V85.486h11.903v23.806z m0 42.85h-11.903v-23.806h11.903v23.805z m0 42.85h-11.903v-23.806h11.903v23.805z m0 42.85h-11.903v-23.806h11.903v23.805z m0 42.85h-11.903v-23.806h11.903v23.805z m0 42.85h-11.903v-23.806h11.903v23.805z m0 42.85h-11.903v-23.805h11.903v23.805z m0 42.85h-11.903v-23.806h11.903v23.806z m0 42.85h-11.903v-23.806h11.903v23.806z m0 42.85h-11.903v-23.806h11.903v23.806z m0 42.85h-11.903v-23.806h11.903v23.806z m0 42.85h-11.903v-23.806h11.903v23.806z m0 42.85h-11.903v-23.806h11.903v23.806z m-3.214 45.266l-10.581-5.463a17.021 17.021 0 0 0 1.892-7.82v-12.95h11.903v12.95c0 4.678-1.108 9.212-3.214 13.283z m-44.23 15.652v-11.902h18.603c1.25 0 2.464-0.13 3.655-0.393l2.57 11.617a28.55 28.55 0 0 1-6.225 0.68h-18.603z m-42.851 0v-11.902h23.805v11.902h-23.805z m-42.85 0v-11.902h23.806v11.902h-23.805z m-42.85 0v-11.902h23.806v11.902h-23.806z m-42.85 0v-11.902h23.806v11.902h-23.806z m-42.85 0v-11.902h23.806v11.902h-23.806z m-42.85 0v-11.902h23.806v11.902h-23.806z m-42.85 0v-11.902h23.806v11.902h-23.806z m-42.85 0v-11.902h23.806v11.902h-23.806z m-42.85 0v-11.902h23.805v11.902h-23.805z m-42.85 0v-11.902h23.805v11.902h-23.806z m-42.85 0v-11.902h23.805v11.902h-23.805z m-42.85 0v-11.902h23.805v11.902h-23.806z m-43.445-18.45l11.093-4.308c2.285 5.892 7.665 10.082 13.962 10.76l-1.286 11.831a28.876 28.876 0 0 1-23.77-18.293z m-1.953-44.516h11.903v23.806h-11.904v-23.806z m0-42.85h11.903V602.4h-11.904v-23.805z m0-42.85h11.903v23.806h-11.904v-23.805z m0-42.85h11.903V516.7h-11.904v-23.805z m0-42.85h11.903v23.806h-11.904v-23.805z m0-42.85h11.903V431h-11.904v-23.805z m0-42.85h11.903v23.807h-11.904v-23.806z m0-42.85h11.903V345.3h-11.904v-23.806z m0-42.85h11.903v23.806h-11.904v-23.806z m0-42.85h11.903V259.6h-11.904v-23.806z m0-42.85h11.903v23.806h-11.904v-23.806z m0-42.85h11.903V173.9h-11.904v-23.806z m0-42.85h11.903v23.806h-11.904v-23.806z m0-42.85h11.903V88.2h-11.904V64.394z m4.857-45.588l9.903 6.606a16.994 16.994 0 0 0-2.857 9.475V45.36h-11.904V34.888c0-5.796 1.703-11.355 4.857-16.069zM341.54 5.951v11.903h-21.235c-0.678 0-1.345 0.048-2.023 0.143L316.794 6.19a29.695 29.695 0 0 1 3.475-0.24h21.283z m42.85 0v11.903h-23.806V5.95h23.806z m42.85 0v11.903h-23.806V5.95h23.806z m42.85 0v11.903h-23.806V5.95h23.806z m42.85 0v11.903h-23.806V5.95h23.806z m42.85 0v11.903h-23.806V5.95h23.806z m42.85 0v11.903h-23.805V5.95h23.804z m42.85 0v11.903h-23.806V5.95h23.805z m42.85 0v11.903h-23.805V5.95h23.805z m42.85 0v11.903h-23.806V5.95h23.805z m42.85 0v11.903h-23.805V5.95h23.805z m42.85 0v11.903h-23.805V5.95h23.805z m42.85 0v11.903h-23.806V5.95h23.806z" fill="#CECFD9" /><path d="M166.64 499.917h263.135a23.806 23.806 0 0 1 23.805 23.806v30.02a23.806 23.806 0 0 0 23.806 23.804h235.51A23.806 23.806 0 0 0 736.7 553.74v-30.018a23.806 23.806 0 0 1 23.805-23.806h263.135a11.903 11.903 0 0 1 11.903 11.903v333.278A11.903 11.903 0 0 1 1023.64 857h-857a11.903 11.903 0 0 1-11.903-11.903V511.82a11.903 11.903 0 0 1 11.902-11.903z" fill="#FFFFFF" /><path d="M429.775 493.966H166.64a17.854 17.854 0 0 0-17.853 17.854v333.278a17.854 17.854 0 0 0 17.853 17.854h857.001a17.854 17.854 0 0 0 17.854-17.854V511.82a17.854 17.854 0 0 0-17.854-17.854H760.506a29.757 29.757 0 0 0-29.757 29.757v30.02a17.854 17.854 0 0 1-17.854 17.853H477.386a17.854 17.854 0 0 1-17.854-17.854v-30.02a29.757 29.757 0 0 0-29.757-29.756zM166.64 505.87h263.135a17.854 17.854 0 0 1 17.854 17.854v30.02a29.757 29.757 0 0 0 29.757 29.756h235.51a29.757 29.757 0 0 0 29.756-29.758v-30.018a17.854 17.854 0 0 1 17.854-17.854h263.135a5.95 5.95 0 0 1 5.95 5.951v333.278a5.95 5.95 0 0 1-5.95 5.952h-857a5.95 5.95 0 0 1-5.953-5.952V511.82a5.95 5.95 0 0 1 5.952-5.95z" fill="#CECFD9" /></svg>